<svg width="64" height="64" viewBox="0 0 64 64" fill="none" xmlns="http://www.w3.org/2000/svg">
<circle opacity="0.1" cx="32" cy="32" r="32" fill="url(#paint0_linear)"/>
<path d="M42.4561 30.3235L17.6544 20.0864C17.4352 19.9986 17.1951 19.9772 16.9638 20.0246C16.7325 20.0721 16.5202 20.1864 16.3533 20.3533C16.1863 20.5203 16.0721 20.7326 16.0246 20.9639C15.9772 21.1953 15.9986 21.4354 16.0864 21.6546L26.3245 46.456C26.4204 46.6871 26.5858 46.8827 26.7978 47.0157C27.0097 47.1486 27.2578 47.2123 27.5076 47.198C27.7574 47.1837 27.9965 47.0921 28.1919 46.9358C28.3873 46.7795 28.5293 46.5663 28.5982 46.3257L31.6028 35.8088C31.6169 35.7595 31.6434 35.7148 31.6797 35.6786C31.716 35.6425 31.761 35.6163 31.8103 35.6025L42.3258 32.5975C42.5664 32.5286 42.7795 32.3866 42.9358 32.1912C43.0921 31.9957 43.1837 31.7565 43.198 31.5067C43.2123 31.2569 43.1486 31.0088 43.0157 30.7968C42.8828 30.5848 42.6872 30.4194 42.4561 30.3235Z" fill="#0278FF"/>
<path fill-rule="evenodd" clip-rule="evenodd" d="M24.7086 16.0788L47.3219 25.4126C47.5326 25.5 47.7109 25.6508 47.8321 25.8441C47.9533 26.0374 48.0114 26.2636 47.9984 26.4914C47.9853 26.7192 47.9018 26.9373 47.7593 27.1155C47.6168 27.2936 47.4225 27.4231 47.2032 27.4859L43.7227 28.4805L24.5396 20.5626L23.279 17.5086C23.199 17.3088 23.1794 17.0898 23.2226 16.8789C23.2659 16.668 23.3701 16.4744 23.5223 16.3222C23.6745 16.1699 23.8681 16.0657 24.079 16.0224C24.2898 15.9792 24.5088 15.9988 24.7086 16.0788Z" fill="#A770EF"/>
<defs>
<linearGradient id="paint0_linear" x1="64" y1="59.7736" x2="3.63031e-06" y2="-3.887e-06" gradientUnits="userSpaceOnUse">
<stop stop-color="#3678F7"/>
<stop offset="1" stop-color="#A770EF"/>
<stop offset="1" stop-color="#A770EF"/>
</linearGradient>
</defs>
</svg>
