<svg width="15" height="14" viewBox="0 0 15 14" fill="none" xmlns="http://www.w3.org/2000/svg">
<path d="M5.6375 7C5.6375 7.45559 5.82696 7.89251 6.1642 8.21466C6.50144 8.53681 6.95884 8.71779 7.43577 8.71779C7.9127 8.71779 8.3701 8.53681 8.70734 8.21466C9.04458 7.89251 9.23404 7.45559 9.23404 7C9.23404 6.54441 9.04458 6.10749 8.70734 5.78534C8.3701 5.46319 7.9127 5.28221 7.43577 5.28221C6.95884 5.28221 6.50144 5.46319 6.1642 5.78534C5.82696 6.10749 5.6375 6.54441 5.6375 7ZM14.4073 6.60429C12.8852 3.54141 10.5843 2 7.5 2C4.41404 2 2.11482 3.54141 0.592716 6.60583C0.531663 6.72932 0.5 6.8642 0.5 7.00077C0.5 7.13734 0.531663 7.27221 0.592716 7.39571C2.11482 10.4586 4.41564 12 7.5 12C10.586 12 12.8852 10.4586 14.4073 7.39417C14.5309 7.14571 14.5309 6.85736 14.4073 6.60429ZM7.43577 9.69939C5.87513 9.69939 4.60992 8.4908 4.60992 7C4.60992 5.5092 5.87513 4.30061 7.43577 4.30061C8.99641 4.30061 10.2616 5.5092 10.2616 7C10.2616 8.4908 8.99641 9.69939 7.43577 9.69939Z" fill="#B8B8B8"/>
</svg>
