<svg width="14" height="12" viewBox="0 0 14 12" fill="none" xmlns="http://www.w3.org/2000/svg">
<path d="M13.5017 2.14993L11.873 0.516596C11.8459 0.489434 11.8137 0.467884 11.7783 0.453181C11.7428 0.438477 11.7049 0.430908 11.6665 0.430908C11.6281 0.430908 11.5901 0.438477 11.5547 0.453181C11.5193 0.467884 11.4871 0.489434 11.46 0.516596L4.58133 7.39993C4.55423 7.42709 4.52205 7.44864 4.48661 7.46335C4.45118 7.47805 4.41319 7.48562 4.37483 7.48562C4.33646 7.48562 4.29848 7.47805 4.26304 7.46335C4.22761 7.44864 4.19542 7.42709 4.16833 7.39993L2.53966 5.7666C2.51257 5.73944 2.48038 5.71788 2.44495 5.70318C2.40951 5.68848 2.37152 5.68091 2.33316 5.68091C2.2948 5.68091 2.25681 5.68848 2.22137 5.70318C2.18594 5.71788 2.15375 5.73944 2.12666 5.7666L0.497994 7.39993C0.443315 7.45463 0.412598 7.5288 0.412598 7.60614C0.412598 7.68348 0.443315 7.75765 0.497994 7.81235L4.16833 11.4833C4.19542 11.5104 4.22761 11.532 4.26304 11.5467C4.29848 11.5614 4.33646 11.569 4.37483 11.569C4.41319 11.569 4.45118 11.5614 4.48661 11.5467C4.52205 11.532 4.55423 11.5104 4.58133 11.4833L13.5017 2.55826C13.5551 2.50374 13.585 2.43044 13.585 2.3541C13.585 2.27775 13.5551 2.20445 13.5017 2.14993Z" fill="#1EB35A"/>
</svg>
