<svg width="32" height="32" viewBox="0 0 32 32" fill="none" xmlns="http://www.w3.org/2000/svg">
<path d="M31 30H30.6667C30.4899 30 30.3203 29.9298 30.1953 29.8047C30.0702 29.6797 30 29.5101 30 29.3333V24C30 23.8232 30.0702 23.6536 30.1953 23.5286C30.3203 23.4036 30.4899 23.3333 30.6667 23.3333H31C31.2652 23.3333 31.5196 23.228 31.7071 23.0404C31.8946 22.8529 32 22.5985 32 22.3333C32 22.0681 31.8946 21.8138 31.7071 21.6262C31.5196 21.4387 31.2652 21.3333 31 21.3333H1C0.734784 21.3333 0.48043 21.4387 0.292893 21.6262C0.105357 21.8138 0 22.0681 0 22.3333C0 22.5985 0.105357 22.8529 0.292893 23.0404C0.48043 23.228 0.734784 23.3333 1 23.3333H1.33333C1.51014 23.3333 1.67971 23.4036 1.80474 23.5286C1.92976 23.6536 2 23.8232 2 24V29.3333C2 29.5101 1.92976 29.6797 1.80474 29.8047C1.67971 29.9298 1.51014 30 1.33333 30H1C0.734784 30 0.48043 30.1054 0.292893 30.2929C0.105357 30.4804 0 30.7348 0 31C0 31.2652 0.105357 31.5196 0.292893 31.7071C0.48043 31.8946 0.734784 32 1 32H31C31.2652 32 31.5196 31.8946 31.7071 31.7071C31.8946 31.5196 32 31.2652 32 31C32 30.7348 31.8946 30.4804 31.7071 30.2929C31.5196 30.1054 31.2652 30 31 30ZM8 28.3333C8 28.5985 7.89464 28.8529 7.70711 29.0404C7.51957 29.228 7.26522 29.3333 7 29.3333C6.73478 29.3333 6.48043 29.228 6.29289 29.0404C6.10536 28.8529 6 28.5985 6 28.3333V25C6 24.7348 6.10536 24.4804 6.29289 24.2929C6.48043 24.1054 6.73478 24 7 24C7.26522 24 7.51957 24.1054 7.70711 24.2929C7.89464 24.4804 8 24.7348 8 25V28.3333ZM14 28.3333C14 28.5985 13.8946 28.8529 13.7071 29.0404C13.5196 29.228 13.2652 29.3333 13 29.3333C12.7348 29.3333 12.4804 29.228 12.2929 29.0404C12.1054 28.8529 12 28.5985 12 28.3333V25C12 24.7348 12.1054 24.4804 12.2929 24.2929C12.4804 24.1054 12.7348 24 13 24C13.2652 24 13.5196 24.1054 13.7071 24.2929C13.8946 24.4804 14 24.7348 14 25V28.3333ZM20 28.3333C20 28.5985 19.8946 28.8529 19.7071 29.0404C19.5196 29.228 19.2652 29.3333 19 29.3333C18.7348 29.3333 18.4804 29.228 18.2929 29.0404C18.1054 28.8529 18 28.5985 18 28.3333V25C18 24.7348 18.1054 24.4804 18.2929 24.2929C18.4804 24.1054 18.7348 24 19 24C19.2652 24 19.5196 24.1054 19.7071 24.2929C19.8946 24.4804 20 24.7348 20 25V28.3333ZM26 28.3333C26 28.5985 25.8946 28.8529 25.7071 29.0404C25.5196 29.228 25.2652 29.3333 25 29.3333C24.7348 29.3333 24.4804 29.228 24.2929 29.0404C24.1054 28.8529 24 28.5985 24 28.3333V25C24 24.7348 24.1054 24.4804 24.2929 24.2929C24.4804 24.1054 24.7348 24 25 24C25.2652 24 25.5196 24.1054 25.7071 24.2929C25.8946 24.4804 26 24.7348 26 25V28.3333Z" fill="#1EB35A"/>
<path d="M8.23891 10H23.7616C23.8158 10.0003 23.8692 9.98725 23.9173 9.9621C23.9653 9.93694 24.0064 9.9004 24.0371 9.85568C24.0677 9.81096 24.0869 9.75941 24.0931 9.70555C24.0992 9.65168 24.0921 9.59713 24.0722 9.54667C23.5556 8.21467 22.7181 7.03088 21.6339 6.10047C20.5497 5.17005 19.2525 4.52181 17.8576 4.21333C17.7089 4.18077 17.5759 4.09834 17.4806 3.97974C17.3853 3.86114 17.3334 3.71349 17.3336 3.56133V1.33333C17.3336 0.979711 17.1931 0.640573 16.9431 0.390524C16.693 0.140476 16.3539 0 16.0002 0C15.6466 0 15.3075 0.140476 15.0574 0.390524C14.8074 0.640573 14.6669 0.979711 14.6669 1.33333V3.56133C14.6668 3.71326 14.6148 3.8606 14.5195 3.97893C14.4242 4.09726 14.2913 4.17949 14.1429 4.212C12.7479 4.52048 11.4508 5.16872 10.3666 6.09913C9.28242 7.02955 8.44484 8.21334 7.92824 9.54533C7.90843 9.5958 7.90127 9.65035 7.9074 9.70421C7.91353 9.75808 7.93276 9.80963 7.96341 9.85435C7.99406 9.89907 8.03519 9.93561 8.08321 9.96076C8.13124 9.98592 8.18469 9.99893 8.23891 9.99867V10Z" fill="#1EB35A"/>
<path d="M5.66699 13.3333H6.66699C6.8438 13.3333 7.01337 13.4036 7.1384 13.5286C7.26342 13.6536 7.33366 13.8232 7.33366 14V19.3333C7.33366 19.5101 7.4039 19.6797 7.52892 19.8047C7.65395 19.9298 7.82351 20 8.00033 20H24.0003C24.1771 20 24.3467 19.9298 24.4717 19.8047C24.5968 19.6797 24.667 19.5101 24.667 19.3333V14C24.667 13.8232 24.7372 13.6536 24.8623 13.5286C24.9873 13.4036 25.1568 13.3333 25.3337 13.3333H26.3337C26.5989 13.3333 26.8532 13.228 27.0408 13.0404C27.2283 12.8529 27.3337 12.5985 27.3337 12.3333C27.3337 12.0681 27.2283 11.8138 27.0408 11.6262C26.8532 11.4387 26.5989 11.3333 26.3337 11.3333H5.66699C5.40178 11.3333 5.14742 11.4387 4.95989 11.6262C4.77235 11.8138 4.66699 12.0681 4.66699 12.3333C4.66699 12.5985 4.77235 12.8529 4.95989 13.0404C5.14742 13.228 5.40178 13.3333 5.66699 13.3333ZM18.0003 14C18.0003 13.7348 18.1057 13.4804 18.2932 13.2929C18.4808 13.1054 18.7351 13 19.0003 13C19.2655 13 19.5199 13.1054 19.7074 13.2929C19.895 13.4804 20.0003 13.7348 20.0003 14V17.3333C20.0003 17.5985 19.895 17.8529 19.7074 18.0404C19.5199 18.228 19.2655 18.3333 19.0003 18.3333C18.7351 18.3333 18.4808 18.228 18.2932 18.0404C18.1057 17.8529 18.0003 17.5985 18.0003 17.3333V14ZM12.0003 14C12.0003 13.7348 12.1057 13.4804 12.2932 13.2929C12.4808 13.1054 12.7351 13 13.0003 13C13.2655 13 13.5199 13.1054 13.7074 13.2929C13.895 13.4804 14.0003 13.7348 14.0003 14V17.3333C14.0003 17.5985 13.895 17.8529 13.7074 18.0404C13.5199 18.228 13.2655 18.3333 13.0003 18.3333C12.7351 18.3333 12.4808 18.228 12.2932 18.0404C12.1057 17.8529 12.0003 17.5985 12.0003 17.3333V14Z" fill="#1EB35A"/>
</svg>
