<svg width="64" height="64" viewBox="0 0 64 64" fill="none" xmlns="http://www.w3.org/2000/svg">
<circle opacity="0.1" cx="32" cy="32" r="32" fill="url(#paint0_linear)"/>
<path d="M33.7331 26.6667H28.2664L34.2984 17.0173C34.3608 16.9165 34.3951 16.8008 34.3979 16.6822C34.4007 16.5637 34.3717 16.4465 34.3141 16.3428C34.2565 16.2392 34.1723 16.1528 34.0702 16.0925C33.968 16.0322 33.8516 16.0003 33.7331 16H23.0664C22.9177 16 22.7733 16.0498 22.6561 16.1414C22.5389 16.2329 22.4557 16.361 22.4197 16.5053L18.4197 32.5053C18.3952 32.6036 18.3934 32.7061 18.4145 32.8052C18.4355 32.9042 18.4788 32.9972 18.5412 33.077C18.6035 33.1568 18.6832 33.2214 18.7742 33.2658C18.8652 33.3102 18.9651 33.3333 19.0664 33.3333H23.5264L19.7571 47.156C19.7152 47.3087 19.7292 47.4714 19.7964 47.6148C19.8636 47.7582 19.9796 47.873 20.1237 47.9387C20.2682 48.0017 20.4301 48.0125 20.5817 47.9692C20.7333 47.9259 20.865 47.8312 20.9544 47.7013L34.2877 27.7013C34.3542 27.601 34.3922 27.4845 34.3978 27.3642C34.4034 27.244 34.3763 27.1244 34.3194 27.0183C34.2625 26.9123 34.178 26.8235 34.0747 26.7616C33.9715 26.6997 33.8534 26.6669 33.7331 26.6667Z" fill="#0278FF"/>
<path d="M43.7505 22.3999H34.5805C34.2217 22.3999 33.8903 22.5922 33.7123 22.9038L32.4002 25.1999H38.4002L32.4002 34.7999L31.7357 40.1158C31.6043 41.1674 32.9843 41.6742 33.5647 40.7875L44.5872 23.9476C45.0225 23.2825 44.5454 22.3999 43.7505 22.3999Z" fill="#A770EF"/>
<defs>
<linearGradient id="paint0_linear" x1="64" y1="59.7736" x2="3.63031e-06" y2="-3.887e-06" gradientUnits="userSpaceOnUse">
<stop stop-color="#3678F7"/>
<stop offset="1" stop-color="#A770EF"/>
<stop offset="1" stop-color="#A770EF"/>
</linearGradient>
</defs>
</svg>
