<svg width="14" height="14" viewBox="0 0 14 14" fill="none" xmlns="http://www.w3.org/2000/svg">
<path fill-rule="evenodd" clip-rule="evenodd" d="M13.1735 11.5476C13.3688 11.3524 13.3688 11.0358 13.1735 10.8405L9.33753 7.00456L13.1733 3.16878C13.3686 2.97352 13.3686 2.65693 13.1733 2.46167L11.5427 0.831082C11.3475 0.63582 11.0309 0.63582 10.8356 0.831082L6.99984 4.66686L3.16402 0.831047C2.96876 0.635785 2.65218 0.635785 2.45692 0.831047L0.82633 2.46164C0.631068 2.6569 0.631068 2.97348 0.82633 3.16874L4.66214 7.00456L0.826134 10.8406C0.630872 11.0358 0.630872 11.3524 0.826134 11.5477L2.45672 13.1783C2.65198 13.3735 2.96857 13.3735 3.16383 13.1783L6.99984 9.34225L10.8358 13.1782C11.0311 13.3735 11.3477 13.3735 11.5429 13.1782L13.1735 11.5476Z" fill="#B8B8B8"/>
</svg>
