<svg width="16" height="14" viewBox="0 0 16 14" fill="none" xmlns="http://www.w3.org/2000/svg">
<path d="M15.4306 2.60003L13.5693 0.733366C13.5383 0.702324 13.5015 0.677696 13.461 0.660891C13.4205 0.644087 13.3771 0.635437 13.3333 0.635437C13.2894 0.635437 13.246 0.644087 13.2055 0.660891C13.165 0.677696 13.1282 0.702324 13.0973 0.733366L5.23593 8.60003C5.20497 8.63107 5.16819 8.6557 5.12769 8.67251C5.08719 8.68931 5.04378 8.69796 4.99993 8.69796C4.95609 8.69796 4.91267 8.68931 4.87218 8.67251C4.83168 8.6557 4.7949 8.63107 4.76393 8.60003L2.43093 6.39761C2.39997 6.36656 2.36318 6.34194 2.32268 6.32513C2.28219 6.30833 2.23877 6.29968 2.19493 6.29968C2.15108 6.29968 2.10767 6.30833 2.06717 6.32513C2.02668 6.34194 1.98989 6.36656 1.95893 6.39761L0.0975955 8.26427C0.0351051 8.32678 0 8.41155 0 8.49994C0 8.58833 0.0351051 8.6731 0.0975955 8.73561L4.76393 13.2667C4.7949 13.2977 4.83168 13.3224 4.87218 13.3392C4.91267 13.356 4.95609 13.3646 4.99993 13.3646C5.04378 13.3646 5.08719 13.356 5.12769 13.3392C5.16819 13.3224 5.20497 13.2977 5.23593 13.2667L15.4306 3.0667C15.4917 3.00439 15.5259 2.92062 15.5259 2.83337C15.5259 2.74612 15.4917 2.66234 15.4306 2.60003Z" fill="#1EB35A"/>
</svg>
