<svg width="32" height="32" viewBox="0 0 32 32" fill="none" xmlns="http://www.w3.org/2000/svg">
<g clip-path="url(#clip0)">
<path d="M30.596 25.6261C29.6173 23.6661 26.2747 22.4381 21.6493 20.7381L20.2173 20.2048C20.1544 20.1812 20.0999 20.1392 20.0612 20.0843C20.0224 20.0293 20.0011 19.964 20 19.8968V17.0674C20 17.0204 20.0098 16.974 20.0289 16.931C20.048 16.8881 20.0758 16.8496 20.1107 16.8181C21.1751 15.8671 21.8417 14.5497 21.9773 13.1288C21.9841 13.0518 22.0176 12.9796 22.072 12.9248C22.3738 12.5852 22.5787 12.1707 22.6653 11.7248C22.7891 11.2908 22.8151 10.8349 22.7416 10.3897C22.668 9.9445 22.4967 9.52115 22.24 9.15009C22.2026 9.10357 22.1782 9.04796 22.1693 8.98893C22.1604 8.9299 22.1673 8.86957 22.1893 8.81409C23.0663 7.0541 23.4571 5.09177 23.3213 3.13009C22.8787 0.91942 19.7627 0.0647534 17.2293 0.000753356C15.1213 -0.04458 12.5173 0.41542 11.6173 1.81942C11.5919 1.85931 11.5583 1.89337 11.5188 1.91934C11.4793 1.94531 11.4347 1.9626 11.388 1.97009C11.058 2.00932 10.7394 2.11495 10.4514 2.28063C10.1633 2.4463 9.91182 2.66859 9.712 2.93409C8.328 4.80075 9.89867 8.93409 9.85733 8.80075C9.8736 8.85448 9.87614 8.91144 9.86473 8.9664C9.85332 9.02137 9.82831 9.0726 9.792 9.11542C9.52319 9.48683 9.34224 9.91444 9.26278 10.366C9.18333 10.8175 9.20745 11.2812 9.33333 11.7221C9.41994 12.1681 9.62487 12.5825 9.92667 12.9221C9.98128 12.9768 10.0148 13.0491 10.0213 13.1261C10.1569 14.547 10.8235 15.8645 11.888 16.8154C11.9234 16.8471 11.9517 16.886 11.971 16.9294C11.9904 16.9728 12.0002 17.0199 12 17.0674V19.8968C12 19.9649 11.9792 20.0314 11.9403 20.0874C11.9015 20.1434 11.8465 20.1862 11.7827 20.2101L10.348 20.7434C5.72267 22.4434 2.38133 23.6768 1.404 25.6314C0.540843 27.4127 0.0624638 29.3557 0 31.3341C0 31.5109 0.0702379 31.6805 0.195262 31.8055C0.320286 31.9305 0.489856 32.0008 0.666667 32.0008H31.3333C31.5101 32.0008 31.6797 31.9305 31.8047 31.8055C31.9298 31.6805 32 31.5109 32 31.3341C31.9383 29.3539 31.4599 27.409 30.596 25.6261Z" fill="#FFBB33"/>
</g>
<defs>
<clipPath id="clip0">
<rect width="32" height="32" fill="white"/>
</clipPath>
</defs>
</svg>
