<svg width="14" height="14" viewBox="0 0 14 14" fill="none" xmlns="http://www.w3.org/2000/svg">
<path d="M13.1629 7.14766C13.1629 6.71149 13.1275 6.27297 13.0521 5.84387H6.99976V8.3147H10.4656C10.3218 9.1116 9.85971 9.81654 9.18303 10.2645V11.8677H11.2508C12.465 10.7502 13.1629 9.09981 13.1629 7.14766Z" fill="#517FE4"/>
<path d="M6.9999 13.4167C8.73049 13.4167 10.1899 12.8485 11.2533 11.8677L9.18553 10.2645C8.61024 10.6559 7.86755 10.8775 7.00226 10.8775C5.32826 10.8775 3.9089 9.74819 3.39963 8.22986H1.26587V9.88258C2.35515 12.0493 4.57378 13.4167 6.9999 13.4167Z" fill="#34A853"/>
<path d="M3.39722 8.22977C3.12844 7.43288 3.12844 6.56998 3.39722 5.77309V4.12036H1.26582C0.35573 5.93341 0.35573 8.06945 1.26582 9.8825L3.39722 8.22977Z" fill="#FBBC04"/>
<path d="M6.9999 3.12301C7.91471 3.10887 8.79886 3.45309 9.46139 4.08494L11.2934 2.25303C10.1333 1.16379 8.59374 0.564945 6.9999 0.583806C4.57378 0.583806 2.35515 1.95125 1.26587 4.1203L3.39727 5.77303C3.90418 4.25233 5.3259 3.12301 6.9999 3.12301Z" fill="#EA4335"/>
</svg>
