<svg width="24" height="24" viewBox="0 0 24 24" fill="none" xmlns="http://www.w3.org/2000/svg">
<path d="M12.5 17.9002C12.3 18.0002 12.2 18.0002 12 18.0002C11.8 18.0002 11.7 18.0002 11.5 17.9002L0 11.7002V23.0002C0 23.6002 0.4 24.0002 1 24.0002H23C23.6 24.0002 24 23.6002 24 23.0002V11.7002L12.5 17.9002Z" fill="#CED1D7"/>
<path d="M5.9999 12.6V2H17.9999V8V12.6L23.0999 9.8L19.9999 7.5V1C19.9999 0.4 19.5999 0 18.9999 0H4.9999C4.3999 0 3.9999 0.4 3.9999 1V7.6L0.899902 9.9L5.9999 12.6Z" fill="#CED1D7"/>
<path d="M16 5H8V7H16V5Z" fill="#CED1D7"/>
<path d="M16 9H8V11H16V9Z" fill="#CED1D7"/>
</svg>
