<svg width="14" height="14" viewBox="0 0 14 14" fill="none" xmlns="http://www.w3.org/2000/svg">
<path d="M13.8292 6.5877L7.41254 0.171036C7.30314 0.0616781 7.1548 0.000244141 7.00012 0.000244141C6.84544 0.000244141 6.69709 0.0616781 6.5877 0.171036L0.171036 6.5877C0.089481 6.66928 0.0339439 6.77321 0.0114462 6.88635C-0.0110516 6.99949 0.000500169 7.11676 0.044641 7.22333C0.0887819 7.32991 0.16353 7.42101 0.259436 7.4851C0.355341 7.5492 0.468099 7.58343 0.583453 7.58345H1.31262C1.3513 7.58345 1.38839 7.59882 1.41574 7.62617C1.44309 7.65352 1.45845 7.69061 1.45845 7.72929V13.4168C1.45845 13.5715 1.51991 13.7199 1.62931 13.8293C1.7387 13.9387 1.88708 14.0001 2.04179 14.0001H5.39595C5.43463 14.0001 5.47172 13.9848 5.49907 13.9574C5.52642 13.9301 5.54179 13.893 5.54179 13.8543V11.0835C5.54179 10.6967 5.69543 10.3257 5.96892 10.0523C6.24241 9.77877 6.61335 9.62512 7.00012 9.62512C7.38689 9.62512 7.75783 9.77877 8.03132 10.0523C8.30481 10.3257 8.45845 10.6967 8.45845 11.0835V13.8543C8.45845 13.893 8.47382 13.9301 8.50117 13.9574C8.52851 13.9848 8.56561 14.0001 8.60429 14.0001H11.9585C12.1132 14.0001 12.2615 13.9387 12.3709 13.8293C12.4803 13.7199 12.5418 13.5715 12.5418 13.4168V7.72929C12.5418 7.69061 12.5571 7.65352 12.5845 7.62617C12.6118 7.59882 12.6489 7.58345 12.6876 7.58345H13.4168C13.5321 7.58343 13.6449 7.5492 13.7408 7.4851C13.8367 7.42101 13.9115 7.32991 13.9556 7.22333C13.9997 7.11676 14.0113 6.99949 13.9888 6.88635C13.9663 6.77321 13.9108 6.66928 13.8292 6.5877Z" fill="url(#paint0_linear)"/>
<defs>
<linearGradient id="paint0_linear" x1="14" y1="13.0756" x2="0.000126749" y2="0.000369834" gradientUnits="userSpaceOnUse">
<stop stop-color="#3678F7"/>
<stop offset="1" stop-color="#A770EF"/>
<stop offset="1" stop-color="#A770EF"/>
</linearGradient>
</defs>
</svg>
