<svg width="64" height="64" viewBox="0 0 64 64" fill="none" xmlns="http://www.w3.org/2000/svg">
<circle opacity="0.1" cx="32" cy="32" r="32" fill="url(#paint0_linear)"/>
<g opacity="0.8">
<path d="M45.2866 28.7666C44.8053 35.7613 37.8453 41.3333 29.3333 41.3333C28.7133 41.3333 28.0919 41.2986 27.4746 41.2373C30.1586 43.3519 34.0599 44.4053 38.0693 43.8599L45.3333 47.4906V40.5373C47.0573 38.8799 47.9999 36.8159 47.9999 34.6666C47.9999 32.4973 47.0359 30.4293 45.2866 28.7666Z" fill="#A770EF"/>
<path d="M29.3333 17.3333C21.9693 17.3333 16 22.1093 16 27.9999C16 30.3959 17 32.5999 18.6667 34.3799V41.3333L25.1107 38.1119C26.4387 38.4666 27.856 38.6666 29.3333 38.6666C36.6973 38.6666 42.6667 33.8906 42.6667 27.9999C42.6667 22.1093 36.6973 17.3333 29.3333 17.3333Z" fill="#0278FF"/>
</g>
<defs>
<linearGradient id="paint0_linear" x1="64" y1="59.7736" x2="3.63031e-06" y2="-3.887e-06" gradientUnits="userSpaceOnUse">
<stop stop-color="#3678F7"/>
<stop offset="1" stop-color="#A770EF"/>
<stop offset="1" stop-color="#A770EF"/>
</linearGradient>
</defs>
</svg>
