<svg width="24" height="23" viewBox="0 0 24 23" fill="none" xmlns="http://www.w3.org/2000/svg">
<path d="M19.9998 14.9998C19.0947 15.003 18.2181 15.316 17.5158 15.8868L12.9998 12.4998V7.85882C13.9424 7.61543 14.764 7.03659 15.3104 6.23082C15.8568 5.42504 16.0906 4.44764 15.9679 3.48182C15.8452 2.51601 15.3745 1.62809 14.644 0.984501C13.9135 0.340912 12.9733 -0.0141602 11.9998 -0.0141602C11.0262 -0.0141602 10.086 0.340912 9.35553 0.984501C8.62502 1.62809 8.15432 2.51601 8.03164 3.48182C7.90897 4.44764 8.14275 5.42504 8.68916 6.23082C9.23557 7.03659 10.0571 7.61543 10.9998 7.85882V12.4998L6.48376 15.8868C5.7753 15.3276 4.898 15.0255 3.99545 15.0299C3.0929 15.0343 2.21857 15.3449 1.51557 15.9109C0.812576 16.477 0.322554 17.2649 0.125714 18.1457C-0.0711255 19.0266 0.0368785 19.9481 0.432048 20.7596C0.827217 21.571 1.48614 22.2243 2.30097 22.6125C3.1158 23.0006 4.03826 23.1007 4.91736 22.8963C5.79647 22.6918 6.58014 22.195 7.1401 21.4872C7.70007 20.7794 8.00316 19.9024 7.99976 18.9998C8.00079 18.4777 7.89885 17.9605 7.69976 17.4778L11.9998 14.2498L16.2998 17.4778C15.9734 18.271 15.9107 19.1481 16.1208 19.9797C16.3309 20.8112 16.8027 21.5532 17.4666 22.0962C18.1306 22.6392 18.9515 22.9544 19.8082 22.9953C20.6649 23.0362 21.5121 22.8006 22.2247 22.3233C22.9374 21.846 23.4777 21.1523 23.7661 20.3446C24.0544 19.5368 24.0755 18.6577 23.8262 17.8371C23.5768 17.0164 23.0703 16.2976 22.3813 15.7867C21.6924 15.2759 20.8575 15 19.9998 14.9998Z" fill="#CED1D7"/>
</svg>
