<svg width="14" height="14" viewBox="0 0 14 14" fill="none" xmlns="http://www.w3.org/2000/svg">
<path d="M10 4.75H9.25V3.5C9.25 2.90326 9.01295 2.33097 8.59099 1.90901C8.16903 1.48705 7.59674 1.25 7 1.25C6.40326 1.25 5.83097 1.48705 5.40901 1.90901C4.98705 2.33097 4.75 2.90326 4.75 3.5V4.75H4V3.5C4 2.70435 4.31607 1.94129 4.87868 1.37868C5.44129 0.816071 6.20435 0.5 7 0.5C7.79565 0.5 8.55871 0.816071 9.12132 1.37868C9.68393 1.94129 10 2.70435 10 3.5V4.75Z" fill="#2859F9" stroke="#2859F9"/>
<path d="M12.25 6.125H1.75C1.51794 6.125 1.29538 6.21719 1.13128 6.38128C0.967187 6.54538 0.875 6.76794 0.875 7V13.125C0.875 13.3571 0.967187 13.5796 1.13128 13.7437C1.29538 13.9078 1.51794 14 1.75 14H12.25C12.4821 14 12.7046 13.9078 12.8687 13.7437C13.0328 13.5796 13.125 13.3571 13.125 13.125V7C13.125 6.76794 13.0328 6.54538 12.8687 6.38128C12.7046 6.21719 12.4821 6.125 12.25 6.125ZM7 11.375C6.65388 11.375 6.31554 11.2724 6.02775 11.0801C5.73997 10.8878 5.51566 10.6145 5.38321 10.2947C5.25076 9.97493 5.2161 9.62306 5.28363 9.28359C5.35115 8.94413 5.51782 8.63231 5.76256 8.38756C6.00731 8.14282 6.31913 7.97615 6.65859 7.90863C6.99806 7.8411 7.34993 7.87576 7.6697 8.00821C7.98947 8.14066 8.26278 8.36497 8.45507 8.65275C8.64736 8.94054 8.75 9.27888 8.75 9.625C8.75 10.0891 8.56563 10.5342 8.23744 10.8624C7.90925 11.1906 7.46413 11.375 7 11.375Z" fill="#2859F9"/>
</svg>
