<svg width="64" height="64" viewBox="0 0 64 64" fill="none" xmlns="http://www.w3.org/2000/svg">
<circle opacity="0.1" cx="32" cy="32" r="32" fill="url(#paint0_linear)"/>
<path fill-rule="evenodd" clip-rule="evenodd" d="M16 19.6001C16 18.4955 16.8954 17.6001 18 17.6001H43.6C44.7046 17.6001 45.6 18.4955 45.6 19.6001V23.1032H33.2C32.0954 23.1032 31.2 23.9987 31.2 25.1032V39.1274H18C16.8954 39.1274 16 38.2319 16 37.1274V19.6001ZM31.2 41.8182H18C16.8954 41.8182 16 42.7137 16 43.8182V44.3031C16 45.4076 16.8954 46.3031 18 46.3031H31.2V41.8182Z" fill="#0278FF"/>
<path fill-rule="evenodd" clip-rule="evenodd" d="M35.6001 25.5032C34.4955 25.5032 33.6001 26.3986 33.6001 27.5032V44.3032C33.6001 45.4077 34.4955 46.3032 35.6001 46.3032H46.0001C47.1047 46.3032 48.0001 45.4077 48.0001 44.3032V27.5032C48.0001 26.3986 47.1047 25.5032 46.0001 25.5032H35.6001ZM40.8001 43.1032C42.1256 43.1032 43.2001 42.0287 43.2001 40.7032C43.2001 39.3777 42.1256 38.3032 40.8001 38.3032C39.4746 38.3032 38.4001 39.3777 38.4001 40.7032C38.4001 42.0287 39.4746 43.1032 40.8001 43.1032Z" fill="#A770EF"/>
<defs>
<linearGradient id="paint0_linear" x1="64" y1="59.7736" x2="3.63031e-06" y2="-3.887e-06" gradientUnits="userSpaceOnUse">
<stop stop-color="#3678F7"/>
<stop offset="1" stop-color="#A770EF"/>
<stop offset="1" stop-color="#A770EF"/>
</linearGradient>
</defs>
</svg>
