<svg width="14" height="14" viewBox="0 0 14 14" fill="none" xmlns="http://www.w3.org/2000/svg">
<path d="M12.6071 4.12664L12.6214 4.11741V4.10038V2.63352V2.57588L12.5731 2.60733L6.98366 6.24629L1.42696 2.60738L1.37859 2.5757V2.63352V4.10038V4.11736L1.39283 4.1266L6.9666 7.74258L6.98356 7.75358L7.00054 7.74263L12.6071 4.12664ZM12.5902 1.19791C12.9751 1.19791 13.3003 1.33656 13.5676 1.61472C13.835 1.89294 13.9687 2.23189 13.9687 2.63352V11.3665C13.9687 11.7681 13.835 12.107 13.5676 12.3853C13.3003 12.6634 12.9751 12.8021 12.5902 12.8021H1.40984C1.02492 12.8021 0.699713 12.6634 0.432367 12.3853C0.16497 12.107 0.03125 11.7681 0.03125 11.3665V2.63352C0.03125 2.23189 0.16497 1.89294 0.432367 1.61472C0.699713 1.33656 1.02492 1.19791 1.40984 1.19791H12.5902Z" fill="#0278FF" stroke="#0278FF" stroke-width="0.0625"/>
</svg>
