<svg width="52" height="52" viewBox="0 0 52 52" fill="none" xmlns="http://www.w3.org/2000/svg">
<path fill-rule="evenodd" clip-rule="evenodd" d="M45.9063 42.7263C49.7091 38.2052 52 32.3701 52 26C52 11.6406 40.3594 0 26 0C11.6406 0 0 11.6406 0 26C0 40.3594 11.6406 52 26 52C29.9266 52 33.65 51.1295 36.9876 49.5711C39.1529 51.7085 42.3559 52 47.7174 52C42.5433 48.7797 43.9859 45.3876 45.9063 42.7263ZM10.4 28.1412C11.1132 36.2998 17.9621 42.6996 26.3058 42.6996C34.6496 42.6996 41.4985 36.2998 42.2117 28.1412H10.4ZM22.0233 17.4353C22.0233 19.2936 20.5169 20.8 18.6586 20.8C16.8003 20.8 15.2939 19.2936 15.2939 17.4353C15.2939 15.577 16.8003 14.0706 18.6586 14.0706C20.5169 14.0706 22.0233 15.577 22.0233 17.4353ZM36.7054 17.4353C36.7054 19.2936 35.1989 20.8 33.3407 20.8C31.4824 20.8 29.976 19.2936 29.976 17.4353C29.976 15.577 31.4824 14.0706 33.3407 14.0706C35.1989 14.0706 36.7054 15.577 36.7054 17.4353Z" fill="url(#paint0_linear)"/>
<defs>
<linearGradient id="paint0_linear" x1="52" y1="48.566" x2="2.94963e-06" y2="-3.15819e-06" gradientUnits="userSpaceOnUse">
<stop stop-color="#3678F7"/>
<stop offset="1" stop-color="#A770EF"/>
<stop offset="1" stop-color="#A770EF"/>
</linearGradient>
</defs>
</svg>
