<svg width="35" height="25" viewBox="0 0 35 25" fill="none" xmlns="http://www.w3.org/2000/svg">
<path d="M19.5918 15.0938C19.5918 12.5468 19.9837 10.3591 20.7673 8.53051C21.551 6.63664 22.5633 5.10194 23.8041 3.92643C25.0449 2.68562 26.449 1.80398 28.0163 1.28153C29.649 0.69378 31.249 0.399902 32.8163 0.399902V3.82848C31.1184 3.82848 29.5184 4.41623 28.0163 5.59174C26.5796 6.70194 25.7306 8.23664 25.4694 10.1958C25.6653 10.1305 25.8939 10.0652 26.1551 9.9999C26.351 9.9346 26.5796 9.86929 26.8408 9.80399C27.1673 9.73868 27.5265 9.70603 27.9184 9.70603C29.8775 9.70603 31.5102 10.457 32.8163 11.9591C34.1224 13.3958 34.7755 15.0938 34.7755 17.053C34.7755 19.0121 34.0898 20.7428 32.7184 22.2448C31.4122 23.6815 29.649 24.3999 27.4286 24.3999C24.9469 24.3999 23.0204 23.4856 21.649 21.657C20.2775 19.7632 19.5918 17.5754 19.5918 15.0938ZM0 15.0938C0 12.5468 0.391837 10.3591 1.17551 8.53051C1.95918 6.63664 2.97143 5.10194 4.21224 3.92643C5.45306 2.68562 6.85714 1.80398 8.42449 1.28153C10.0571 0.69378 11.6571 0.399902 13.2245 0.399902V3.82848C11.5265 3.82848 9.92653 4.41623 8.42449 5.59174C6.98776 6.70194 6.13878 8.23664 5.87755 10.1958C6.07347 10.1305 6.30204 10.0652 6.56327 9.9999C6.75918 9.9346 6.98776 9.86929 7.24898 9.80399C7.57551 9.73868 7.93469 9.70603 8.32653 9.70603C10.2857 9.70603 11.9184 10.457 13.2245 11.9591C14.5306 13.3958 15.1837 15.0938 15.1837 17.053C15.1837 19.0121 14.498 20.7428 13.1265 22.2448C11.8204 23.6815 10.0571 24.3999 7.83673 24.3999C5.3551 24.3999 3.42857 23.4856 2.05714 21.657C0.685715 19.7632 0 17.5754 0 15.0938Z" fill="#0278FF"/>
</svg>
